HIERARCHY
ROOT pelvis
{
  OFFSET 0 100 0
  CHANNELS 6 Xposition Yposition Zposition Zrotation Xrotation Yrotation
  JOINT pelvis_right_femur
  {
    OFFSET -10.78128 -3.44521 -0.5502486
    CHANNELS 3 Zrotation Xrotation Yrotation
    JOINT right_femur_tibia
    {
      OFFSET -0.8047443 -44.0398 -0.1307829
      CHANNELS 3 Zrotation Xrotation Yrotation
      JOINT right_tibia_foot
      {
        OFFSET 3.006224 -47.83518 -5
        CHANNELS 3 Zrotation Xrotation Yrotation
        End Site
        {
          OFFSET 0 -5 15
        }
      }
    }
  }
  JOINT pelvis_left_femur
  {
    OFFSET 10.78128 -3.44521 -0.5502486
    CHANNELS 3 Zrotation Xrotation Yrotation
    JOINT left_femur_tibia
    {
      OFFSET 0.8047443 -44.0398 -0.1307829
      CHANNELS 3 Zrotation Xrotation Yrotation
      JOINT left_tibia_foot
      {
        OFFSET -4.370144 -48.10324 -4.275266
        CHANNELS 3 Zrotation Xrotation Yrotation
        End Site
        {
          OFFSET 0 -5 15
        }
      }
    }
  }
  JOINT pelvis_spine1
  {
    OFFSET 0 6.468898 -3.129235
    CHANNELS 3 Zrotation Xrotation Yrotation
    JOINT spine1
    {
      OFFSET 0 23.15396 4.99043
      CHANNELS 3 Zrotation Xrotation Yrotation
      JOINT spine2
      {
        OFFSET 0 20.79997 -5.064912
        CHANNELS 3 Zrotation Xrotation Yrotation
        JOINT neck
        {
          OFFSET 0 14.38658 9.616178
          CHANNELS 3 Zrotation Xrotation Yrotation
          End Site
          {
            OFFSET 0 20 0
          }
        }
      }
      JOINT right_manubrium
      {
        OFFSET -5.722621 16.35077 3.967754
        CHANNELS 3 Zrotation Xrotation Yrotation
        JOINT right_clavicle
        {
          OFFSET -13.16364 1.694482 -4.693211
          CHANNELS 3 Zrotation Xrotation Yrotation
          JOINT right_humerus
          {
            OFFSET -28.5034 -0.3100689 -2.792744
            CHANNELS 3 Zrotation Xrotation Yrotation
            JOINT right_radius
            {
              OFFSET -25.15693 0.02248979 -1.271978
              CHANNELS 3 Zrotation Xrotation Yrotation
              End Site
              {
                OFFSET -15 0 0
              }
            }
          }
        }
      }
      JOINT left_manubrium
      {
        OFFSET 5.722621 16.35077 3.967754
        CHANNELS 3 Zrotation Xrotation Yrotation
        JOINT left_clavicle
        {
          OFFSET 13.16364 1.694482 -4.693211
          CHANNELS 3 Zrotation Xrotation Yrotation
          JOINT left_humerus
          {
            OFFSET 29.39168 -1.063119 -2.237045
            CHANNELS 3 Zrotation Xrotation Yrotation
            JOINT left_radius
            {
              OFFSET 24.59957 -0.9528479 0.9047498
              CHANNELS 3 Zrotation Xrotation Yrotation
              End Site
              {
                OFFSET 15 -0 -0
              }
            }
          }
        }
      }
    }
  }
}
MOTION
Frames: 19
Frame Time: 0.0416666666667
1823.2 105.792 1178.341 4.755363 3.753319 106.6473 -1.112055 18.45481 4.048238 -0 39.82959 -0 -2.500512 0.8367649 -0.6171124 -3.845558 -20.46265 -7.879003 -0 18.1565 -0 -3.296637 -7.952538 18.52348 -4.01817 -1.199411 7.330019 -0.8207432 10.81095 -3.363439 2.07284 21.59228 4.613228 3.521494 -18.3116 5.056738 2.370572 -21.07519 10.6583 80.74397 23.56779 -4.664397 -0 0 21.59621 -22.09307 6.389797 15.47321 4.01065 -15.75999 -2.225383 -92.87445 21.33779 24.88232 0 0 -5.379368 0.8099961 6.906585 13.06986
1829.263 107.501 1175.198 5.071042 4.235819 107.4203 -1.389905 12.58079 4.02971 -0 52.00768 -0 -3.433289 7.715529 -1.762695 -5.480945 -14.81817 -8.127659 -0 19.68797 -0 -1.0796 -8.989595 17.99132 -4.75143 -1.269969 6.381026 -0.6202612 12.09391 -4.478449 1.588193 21.62562 5.103282 3.609785 -18.63331 4.986733 3.596138 -20.43069 11.3898 82.84589 25.02286 -8.018777 -0 0 18.10957 -21.99746 6.99164 15.29186 3.129217 -17.19933 -3.361393 -91.17523 22.01287 23.52422 0 0 -7.778927 0.882723 6.814874 13.79516
1834.745 109.5819 1172.318 5.325212 4.446858 108.6136 -1.109574 5.601515 4.085605 -0 60.08528 -0 -3.281629 10.6813 -3.404593 -6.343598 -9.227387 -7.971549 -0 19.00766 -0 0.9543354 -10.33116 17.31439 -4.946804 -0.9815475 5.289888 -0.01338645 12.82543 -5.769706 0.9421548 21.71834 5.504149 3.266308 -19.08823 4.947556 4.172389 -19.92384 12.0044 84.77986 25.19944 -11.15568 -0 0 15.44886 -20.95613 6.643637 14.96989 2.359539 -18.15334 -4.31965 -89.55992 22.17952 21.95106 0 0 -10.14928 1.050163 6.168931 14.17833
1839.702 111.5591 1169.702 5.49009 4.352406 110.0134 -0.5235 -1.109882 4.267705 -0 62.67024 -0 -2.636715 9.380141 -5.091153 -6.487817 -3.949544 -7.991591 -0 17.12037 -0 2.154199 -11.69353 16.52569 -4.708854 -0.6185093 4.172645 0.8568997 12.80865 -6.976069 0.4374221 21.9192 5.625736 2.612724 -19.56904 5.014843 4.026821 -19.42603 12.2348 86.15533 24.28862 -13.58872 -0 0 13.78742 -19.12404 5.69179 14.37754 1.903538 -18.55034 -4.830128 -88.21034 22.29434 20.05048 0 0 -12.07993 1.231948 5.555967 14.08836
1844.243 113.1766 1167.333 5.477642 4.05879 111.4075 0.1025636 -6.794542 4.474058 -0 60.85999 -0 -2.443132 5.733295 -6.307469 -6.253562 0.8602762 -8.462268 -0 14.99425 -0 2.601843 -12.94981 15.82999 -4.373186 -0.4020596 3.13481 1.768868 12.29601 -7.989897 0.1599817 22.21341 5.540234 1.96567 -19.9865 5.143825 3.560484 -18.86065 12.13686 87.01943 23.32337 -15.47546 -0 0 12.65149 -16.99741 4.662941 13.57889 1.766722 -18.75275 -4.961858 -87.10578 22.82297 17.89268 0 0 -13.76118 1.278808 5.458992 13.76732
1848.45 114.3337 1165.192 5.307671 3.724961 112.6574 0.6014863 -11.24402 4.584793 -0 56.43361 -0 -2.812477 1.494605 -7.013882 -5.930998 5.036233 -9.373218 -0 13.01831 -0 2.457531 -14.16945 15.34533 -4.125124 -0.3627579 2.286308 2.537397 11.56959 -8.749186 0.06974044 22.55283 5.398016 1.524119 -20.25567 5.293512 3.085158 -18.27253 11.86953 87.55678 22.80623 -17.03594 -0 0 11.79265 -15.00407 3.863466 12.68254 1.888781 -18.97129 -4.907083 -86.28785 23.95766 15.81028 0 0 -15.43876 0.9720326 5.939302 13.66663
1852.378 114.9946 1163.259 5.085418 3.481116 113.6991 0.887899 -14.61278 4.50644 -0 50.74353 -0 -3.41885 -2.466589 -7.385537 -5.666035 8.530167 -10.61319 -0 11.2663 -0 1.675052 -15.51997 15.02604 -3.985057 -0.4169252 1.690363 3.034761 10.75535 -9.19113 0.1418757 22.9216 5.282974 1.331824 -20.27154 5.476793 2.681409 -17.69296 11.51659 87.92718 22.67664 -18.3559 -0 0 11.19147 -13.36179 3.399416 11.70462 2.242906 -19.23713 -4.807002 -85.77491 25.75372 14.02091 0 0 -17.25275 0.152245 6.907709 14.13172
1856.059 115.1585 1161.51 4.820882 3.370933 114.5307 0.942439 -17.27363 4.196138 -0 44.57172 -0 -4.041568 -5.669647 -7.533724 -5.527424 11.31924 -12.02432 -0 9.675982 -0 0.3119217 -17.14441 14.785 -3.944413 -0.4724554 1.37162 3.218221 9.926013 -9.322387 0.3393153 23.28003 5.246808 1.398776 -20.02211 5.688578 2.393993 -17.13532 11.13162 88.2111 22.89979 -19.49953 -0 0 10.83999 -12.13548 3.272514 10.64216 2.81953 -19.58557 -4.734932 -85.53168 28.09943 12.61353 0 0 -19.29092 -1.158386 8.204746 15.25873
1859.509 114.8481 1159.916 4.411604 3.354452 115.195 0.8059929 -19.60185 3.670768 -0 38.29157 -0 -4.604496 -7.768865 -7.478748 -5.554865 13.34271 -13.43576 -0 8.133999 -0 -1.38131 -19.09674 14.57323 -4.003122 -0.4793542 1.338525 3.12381 9.164479 -9.222972 0.5905076 23.53978 5.340613 1.740839 -19.62284 5.884541 2.305292 -16.64551 10.78104 88.41623 23.6008 -20.54173 -0 0 10.72329 -11.31813 3.452916 9.543531 3.592911 -20.06975 -4.719872 -85.55821 30.73985 11.7099 0 0 -21.58399 -2.822047 9.599928 16.97936
1862.741 114.1066 1158.439 3.738066 3.346838 115.7604 0.5644705 -21.85143 2.990838 -0 32.12097 -0 -5.056466 -8.53497 -7.210084 -5.760076 14.53214 -14.68181 -0 6.555901 -0 -3.096691 -21.32943 14.36621 -4.144021 -0.4246782 1.582653 2.828589 8.555421 -8.997353 0.8153467 23.59457 5.599827 2.352609 -19.25745 6.011415 2.487777 -16.3035 10.53453 88.52186 24.89297 -21.52567 -0 0 10.85539 -10.8847 3.910829 8.508999 4.506595 -20.70284 -4.765484 -85.92057 33.35227 11.50226 0 0 -24.07062 -4.667269 10.83106 19.15182
1865.783 112.9999 1157.019 2.744337 3.242474 116.3026 0.3414618 -24.16208 2.250255 -0 26.28775 -0 -5.33767 -7.913945 -6.746474 -6.098609 14.89779 -15.60587 -0 4.949589 -0 -4.570588 -23.68104 14.12836 -4.311442 -0.3143961 2.051654 2.434606 8.160543 -8.750208 0.9537009 23.36245 6.013328 3.169137 -19.12035 6.035811 2.948346 -16.18393 10.44384 88.5184 26.72731 -22.43994 -0 0 11.25249 -10.79186 4.599403 7.664168 5.463727 -21.42963 -4.857675 -86.67637 35.58245 12.13722 0 0 -26.5776 -6.483573 11.65981 21.54514
1868.706 111.6201 1155.588 1.49061 2.934854 116.8826 0.2870455 -26.56797 1.572244 -0 21.08383 -0 -5.422725 -6.127145 -6.175053 -6.444823 14.62601 -16.08195 -0 3.472066 -0 -5.628005 -25.85878 13.80242 -4.413817 -0.1655845 2.618721 2.068446 7.991626 -8.57982 0.9833204 22.83299 6.501176 4.042882 -19.36324 5.961225 3.598625 -16.30165 10.52193 88.42614 28.83579 -23.2266 -0 0 11.85591 -10.9492 5.42183 7.120759 6.322092 -22.12807 -4.966376 -87.7434 37.09319 13.52454 0 0 -28.82224 -8.002648 11.95191 23.79831
1871.632 110.0804 1154.078 0.1751239 2.359676 117.5283 0.5389499 -28.9731 1.088168 -0 16.83934 -0 -5.361234 -3.727814 -5.646924 -6.613831 14.11491 -16.0587 -0 2.460456 -0 -6.22589 -27.47773 13.32612 -4.352736 -0.00187739 3.087755 1.859658 7.987197 -8.557207 0.9278273 22.10842 6.925185 4.763606 -20.02183 5.832687 4.263689 -16.56497 10.72285 88.29572 30.78267 -23.80948 -0 0 12.47 -11.20739 6.229406 6.918489 6.919462 -22.63925 -5.049995 -88.81525 37.68106 15.2073 0 0 -30.46554 -8.950758 11.76302 25.46656
1874.725 108.5016 1152.434 -0.9146932 1.549262 118.2284 1.160529 -31.14232 0.8907571 -0 13.83358 -0 -5.267119 -1.47037 -5.316326 -6.450786 13.85506 -15.59465 -0 2.380335 -0 -6.467418 -28.19093 12.67088 -4.070244 0.1548378 3.263078 1.88978 8.02362 -8.69226 0.8457641 21.39227 7.146748 5.138422 -20.9656 5.718324 4.747036 -16.78417 10.94626 88.19468 32.13939 -24.13292 -0 0 12.7937 -11.39777 6.875016 6.985406 7.135824 -22.82811 -5.068245 -89.47359 37.38667 16.49899 0 0 -31.22432 -9.162328 11.33813 26.17867
1878.151 106.9994 1150.624 -1.522962 0.643054 118.9425 2.101518 -32.76086 0.9881806 -0 12.18147 -0 -5.26244 0.002290846 -5.267146 -5.925335 14.18561 -14.84569 -0 3.678506 -0 -6.540527 -27.83592 11.87894 -3.579596 0.2929443 3.04875 2.151233 7.975424 -8.921308 0.8017016 20.90312 7.097411 5.08617 -21.94341 5.674976 4.924309 -16.75808 11.08648 88.18573 32.68454 -24.18889 -0 0 12.56019 -11.40867 7.286115 7.169993 6.949659 -22.64261 -4.999697 -89.46104 36.46074 16.86779 0 0 -30.98337 -8.654189 10.97858 25.7997
1882.039 105.6858 1148.635 -1.529604 -0.1746774 119.6113 3.226018 -33.53608 1.303571 -0 11.78447 -0 -5.424886 0.406898 -5.490297 -5.135699 15.12347 -13.99688 -0 6.65324 -0 -6.620419 -26.46322 11.05773 -2.94758 0.413265 2.490414 2.560715 7.780783 -9.139374 0.8389159 20.77564 6.800305 4.662271 -22.70888 5.726376 4.792032 -16.37469 11.09219 88.30483 32.4666 -24.01099 -0 0 11.66953 -11.23166 7.488453 7.32709 6.433693 -22.12262 -4.849975 -88.83095 35.19894 16.20653 0 0 -29.81641 -7.587155 10.88522 24.45842
1886.455 104.6771 1146.463 -0.9559801 -0.7542831 120.1615 4.383942 -33.24375 1.723604 -0 12.39169 -0 -5.778775 -0.1967578 -5.913676 -4.23079 16.38552 -13.18766 -0 11.47361 -0 -6.822183 -24.22547 10.33295 -2.248153 0.5247831 1.734032 3.010599 7.458063 -9.248117 0.9702178 21.03241 6.334493 4.002969 -23.11312 5.865771 4.440046 -15.64138 10.98248 88.5507 31.71062 -23.64515 -0 0 10.20062 -10.94149 7.570305 7.377148 5.700145 -21.35943 -4.642692 -87.85342 33.81414 14.77626 0 0 -27.90657 -6.164755 11.1131 22.43482
1891.395 104.1005 1144.121 0.09583703 -1.009325 120.5108 5.45533 -31.67727 2.147047 -0 13.69251 -0 -6.319138 -1.585962 -6.432126 -3.347462 17.47147 -12.48308 -0 18.30928 -0 -7.215721 -21.25176 9.814326 -1.535437 0.6408469 0.9741226 3.401765 7.083683 -9.175336 1.183181 21.62032 5.794517 3.264327 -23.10548 6.067141 3.99842 -14.65466 10.8221 88.88391 30.7102 -23.12398 -0 0 8.348819 -10.6541 7.641303 7.305954 4.85834 -20.45922 -4.402861 -86.8581 32.42562 13.01662 0 0 -25.46126 -4.562738 11.62532 20.03787
1896.77 104.0858 1141.645 1.47265 -0.9022321 120.5758 6.336345 -28.57335 2.497333 -0 15.31657 -0 -7.026918 -3.502995 -6.894748 -2.610471 17.61812 -11.87998 -0 27.3711 -0 -7.847635 -17.62582 9.596238 -0.8550552 0.7812259 0.4600561 3.635738 6.778859 -8.865634 1.441867 22.43826 5.285965 2.613787 -22.69901 6.286351 3.616494 -13.58924 10.6984 89.20995 29.81769 -22.45458 -0 0 6.421096 -10.52072 7.826729 7.146653 4.022487 -19.5523 -4.144737 -86.17396 31.10707 11.47069 0 0 -22.71852 -2.924245 12.34171 17.58133
